<?xml version="1.0" encoding="utf-8"?>
<!-- Generator: Adobe Illustrator 21.0.2, SVG Export Plug-In . SVG Version: 6.00 Build 0)  -->
<svg version="1.1" id="JIRA_-_Blue" xmlns="http://www.w3.org/2000/svg" xmlns:xlink="http://www.w3.org/1999/xlink" x="0px"
	 y="0px" viewBox="0 0 100 39.2" style="enable-background:new 0 0 100 39.2;" xml:space="preserve">
<style type="text/css">
	.st0{fill:#172B4D;}
</style>
<path class="st0" d="M91.4,10.1c-0.1-0.3-0.4-0.5-0.7-0.5h-6.5c-0.3,0-0.6,0.2-0.7,0.5l-7.5,23.8l-4.6-6.7c2.6-1.1,3.9-3.3,3.9-6.6
	v-3.5c0-5.2-2.7-7.5-8.8-7.5H55.9c-0.4,0-0.7,0.3-0.7,0.7v26c0,0.4,0.3,0.7,0.7,0.7h4.3c0.4,0,0.7-0.3,0.7-0.7v-8.1h4.4l5.9,8.5
	c0.1,0.2,0.3,0.3,0.6,0.3h8.8c0.3,0,0.6-0.2,0.7-0.5l5.6-19.1c0,0,0.1-0.5,0.7-0.5c0.5,0,0.6,0.5,0.6,0.5l2.6,9.1h-3.6
	c-0.3,0-0.6,0.2-0.7,0.5l-1,3.6c-0.1,0.2,0,0.4,0.1,0.6c0.1,0.2,0.3,0.3,0.6,0.3h6.1l1.6,5.1c0.1,0.3,0.4,0.5,0.7,0.5h4.5
	c0.2,0,0.4-0.1,0.6-0.3c0.1-0.2,0.2-0.4,0.1-0.6L91.4,10.1z M69.7,20.2c0,2.2-0.8,3-3.4,3h-5.4v-8.5h5.4c2.8,0,3.4,1.1,3.4,2.9V20.2
	z"/>
<g>
	<path class="st0" d="M50,9.6h-4.3c-0.4,0-0.7,0.3-0.7,0.7v26c0,0.4,0.3,0.7,0.7,0.7H50c0.4,0,0.7-0.3,0.7-0.7v-26
		C50.7,9.9,50.4,9.6,50,9.6z"/>
	<path class="st0" d="M77.4,35.8l-5.9-8.6c2.6-1.1,3.9-3.3,3.9-6.6v-3.5c0-5.2-2.7-7.5-8.8-7.5H55.9c-0.4,0-0.7,0.3-0.7,0.7v26
		c0,0.4,0.3,0.7,0.7,0.7h4.3c0.4,0,0.7-0.3,0.7-0.7v-8.1h4.4l5.9,8.5c0.1,0.2,0.3,0.3,0.6,0.3h5.1c0,0,0,0,0,0
		c0.4,0,0.7-0.3,0.7-0.7C77.6,36.1,77.5,35.9,77.4,35.8z M60.9,14.7h5.4c2.8,0,3.4,1.1,3.4,2.9v2.7c0,2.2-0.8,3-3.4,3h-5.4V14.7z"/>
</g>
<path class="st0" d="M91.4,10.1c-0.1-0.3-0.4-0.5-0.7-0.5h-6.5c-0.3,0-0.6,0.2-0.7,0.5l-8.2,26c-0.1,0.2,0,0.4,0.1,0.6
	c0.1,0.2,0.3,0.3,0.6,0.3h4.5c0.3,0,0.6-0.2,0.7-0.5l5.6-19.1c0,0,0.1-0.5,0.7-0.5c0.5,0,0.6,0.5,0.6,0.5l2.6,9.1h-3.6
	c-0.3,0-0.6,0.2-0.7,0.5l-1,3.6c-0.1,0.2,0,0.4,0.1,0.6c0.1,0.2,0.3,0.3,0.6,0.3h6.1l1.6,5.1c0.1,0.3,0.4,0.5,0.7,0.5h4.5
	c0.2,0,0.4-0.1,0.6-0.3c0.1-0.2,0.2-0.4,0.1-0.6L91.4,10.1z"/>
<path class="st0" d="M40,9.6h-4.3c-0.4,0-0.7,0.3-0.7,0.7v20.3c0,2.6-1.9,3.4-3.3,3.5c-0.2,0-0.4,0.1-0.5,0.3
	c-0.1,0.2-0.1,0.4-0.1,0.6l1.1,3.4c0.1,0.3,0.4,0.5,0.9,0.5c4.1,0,7.6-3.2,7.6-7.6V10.3c0-0.2-0.1-0.3-0.2-0.5
	C40.4,9.7,40.2,9.6,40,9.6z"/>
<g>
	<g>
		<g>
			<g>
				<path class="st0" d="M6.6,2.5c-1.3,0-2.4,1.1-2.4,2.4c0,1.3,1.1,2.4,2.4,2.4C7.9,7.3,9,6.2,9,4.9C9,3.6,7.9,2.5,6.6,2.5L6.6,2.5
					L6.6,2.5z"/>
			</g>
		</g>
		<g>
			<g>
				<path class="st0" d="M22.4,2.5C21,2.5,20,3.6,20,4.9c0,1.3,1.1,2.4,2.4,2.4c1.3,0,2.4-1.1,2.4-2.4C24.8,3.6,23.7,2.5,22.4,2.5
					L22.4,2.5L22.4,2.5z"/>
			</g>
		</g>
	</g>
	<g>
		<g>
			<path class="st0" d="M14.5,0.3c-1.3,0-2.4,1.1-2.4,2.4c0,1.3,1.1,2.4,2.4,2.4c1.3,0,2.4-1.1,2.4-2.4C16.9,1.4,15.8,0.3,14.5,0.3
				L14.5,0.3L14.5,0.3z"/>
		</g>
	</g>
</g>
<g>
	<path class="st0" d="M28,9.2c-0.1-0.1-0.3-0.2-0.5-0.2c-0.1,0-0.2,0-0.3,0c-1.6,0.6-3.3,1.1-4.8,1.4c-0.3,0.1-0.6,0.3-0.7,0.6
		C20.8,14.1,18,17,15,20c-0.1,0.1-0.3,0.3-0.6,0.3c-0.3,0-0.4-0.1-0.6-0.3c-2.9-3-5.7-5.9-6.8-8.9c-0.1-0.3-0.4-0.5-0.7-0.6
		c-1.5-0.4-3.2-0.8-4.8-1.5c-0.1,0-0.2,0-0.3,0C1.2,9.1,1,9.1,0.9,9.2C0.7,9.4,0.6,9.6,0.6,9.9c0.2,2.5,1.2,4.9,3,7.5
		c1.7,2.4,3.9,4.6,6,6.8c3.9,4,7.6,7.7,7.9,12.1c0,0.4,0.4,0.7,0.8,0.7h4.6c0.2,0,0.4-0.1,0.5-0.2c0.1-0.1,0.2-0.3,0.2-0.6
		c-0.1-2.9-1.2-5.8-3.3-8.9c-0.4-0.6-0.9-1.3-1.4-1.9c-0.2-0.3-0.1-0.6,0-0.7c0.2-0.2,0.3-0.3,0.5-0.5c2.1-2.2,4.3-4.4,6-6.8
		c1.8-2.6,2.8-5,3-7.5C28.4,9.6,28.2,9.4,28,9.2z"/>
	<g>
		<path class="st0" d="M9.6,27.6c-0.1-0.1-0.3-0.2-0.5-0.2c-0.3,0-0.5,0.2-0.6,0.4c-1.9,2.9-2.9,5.7-3.1,8.5c0,0.2,0.1,0.4,0.2,0.6
			C5.7,36.9,5.9,37,6.1,37h4.6c0.4,0,0.7-0.3,0.8-0.7c0.1-1.3,0.5-2.7,1.3-4.1c0.3-0.5,0.1-0.9-0.1-1.1C11.8,30,10.9,29,9.6,27.6z"
			/>
	</g>
	<path class="st0" d="M14.5,11.5c1.4,0,2.3-0.1,2.6-0.1c0.4,0,0.7,0.3,0.7,0.7c0,0.1,0,0.2-0.1,0.3c-0.2,0.5-1.1,2.3-2.7,3.9
		c-0.2,0.2-0.4,0.2-0.5,0.2h0c-0.1,0-0.3,0-0.5-0.2c-1.6-1.6-2.5-3.4-2.7-3.9c0-0.1-0.1-0.2-0.1-0.3c0-0.4,0.3-0.7,0.7-0.7
		C12.2,11.4,13,11.5,14.5,11.5L14.5,11.5z"/>
</g>
</svg>
